<svg width="400" height="400" viewBox="0 0 400 400" fill="none" xmlns="http://www.w3.org/2000/svg">
<rect width="400" height="400" fill="#F7F7F7"/>
<path d="M253 182L176.915 214.93C170.605 217.643 165.306 219 161.018 219C156.165 219 152.645 217.273 150.461 213.82C149.086 211.6 148.681 208.784 149.248 205.372C149.814 201.959 151.311 198.321 153.738 194.457C155.76 191.332 159.077 187.221 163.688 182.123C162.07 184.754 160.938 187.468 160.29 190.263C159.077 195.526 160.169 199.39 163.567 201.857C165.185 203.008 167.409 203.583 170.241 203.583C172.506 203.583 175.054 203.213 177.886 202.473L253 182Z" fill="#FA5400"/>
<path d="M136.483 90.6573H139.54V113H136.483V90.6573Z" fill="#999999"/>
<path d="M145.95 90.6573H150.284L156.703 109.547L163.076 90.6573H167.365V113H164.49V99.8134C164.49 99.3571 164.5 98.6017 164.52 97.5472C164.541 96.4926 164.551 95.3621 164.551 94.1554L158.178 113H155.182L148.763 94.1554V94.8399C148.763 95.3874 148.774 96.2239 148.794 97.3494C148.824 98.4648 148.839 99.2861 148.839 99.8134V113H145.95V90.6573Z" fill="#999999"/>
<path d="M184.999 103.844L181.607 93.9729L178.002 103.844H184.999ZM180.025 90.6573H183.447L191.554 113H188.238L185.972 106.308H177.135L174.717 113H171.614L180.025 90.6573Z" fill="#999999"/>
<path d="M205.522 90.0793C207.621 90.0793 209.436 90.4849 210.967 91.2961C213.188 92.4621 214.546 94.5053 215.043 97.4255H212.047C211.682 95.793 210.927 94.6067 209.781 93.8665C208.635 93.1161 207.19 92.741 205.446 92.741C203.378 92.741 201.634 93.5166 200.214 95.068C198.805 96.6194 198.1 98.9312 198.1 102.004C198.1 104.66 198.683 106.825 199.849 108.498C201.015 110.161 202.916 110.992 205.553 110.992C207.57 110.992 209.238 110.409 210.557 109.243C211.885 108.067 212.564 106.171 212.595 103.555H205.598V101.045H215.408V113H213.462L212.731 110.125C211.707 111.251 210.8 112.032 210.009 112.468C208.681 113.218 206.992 113.593 204.944 113.593C202.298 113.593 200.021 112.736 198.115 111.023C196.037 108.873 194.997 105.923 194.997 102.171C194.997 98.4293 196.011 95.4533 198.039 93.2429C199.966 91.1338 202.46 90.0793 205.522 90.0793Z" fill="#999999"/>
<path d="M221.955 90.6573H238.244V93.395H224.905V100.178H237.24V102.764H224.905V110.338H238.472V113H221.955V90.6573Z" fill="#999999"/>
<path d="M243.923 90.6573H248.258L254.676 109.547L261.049 90.6573H265.338V113H262.463V99.8134C262.463 99.3571 262.474 98.6017 262.494 97.5472C262.514 96.4926 262.524 95.3621 262.524 94.1554L256.152 113H253.155L246.737 94.1554V94.8399C246.737 95.3874 246.747 96.2239 246.767 97.3494C246.798 98.4648 246.813 99.2861 246.813 99.8134V113H243.923V90.6573Z" fill="#999999"/>
<path d="M85.3783 296.657H88.4354V319H85.3783V296.657Z" fill="#999999"/>
<path d="M94.9207 296.657H98.4949L109.78 314.757V296.657H112.655V319H109.263L97.8105 300.916V319H94.9207V296.657Z" fill="#999999"/>
<path d="M127.566 316.414C128.59 316.414 129.432 316.308 130.091 316.095C131.267 315.7 132.231 314.939 132.981 313.814C133.579 312.911 134.01 311.755 134.274 310.346C134.426 309.504 134.502 308.723 134.502 308.004C134.502 305.235 133.949 303.086 132.844 301.555C131.749 300.024 129.98 299.258 127.536 299.258H122.167V316.414H127.566ZM119.125 296.657H128.175C131.247 296.657 133.63 297.747 135.323 299.927C136.834 301.894 137.589 304.414 137.589 307.486C137.589 309.859 137.143 312.004 136.251 313.92C134.679 317.307 131.977 319 128.144 319H119.125V296.657Z" fill="#999999"/>
<path d="M143.74 296.657H146.797V319H143.74V296.657Z" fill="#999999"/>
<path d="M155.26 311.791C155.331 313.058 155.63 314.087 156.157 314.878C157.161 316.359 158.93 317.099 161.465 317.099C162.601 317.099 163.635 316.937 164.568 316.612C166.373 315.983 167.275 314.858 167.275 313.236C167.275 312.019 166.895 311.152 166.135 310.635C165.364 310.128 164.157 309.687 162.515 309.312L159.488 308.627C157.511 308.181 156.112 307.689 155.29 307.152C153.871 306.219 153.161 304.825 153.161 302.969C153.161 300.962 153.855 299.314 155.245 298.026C156.634 296.738 158.601 296.095 161.146 296.095C163.488 296.095 165.475 296.662 167.108 297.798C168.751 298.923 169.572 300.728 169.572 303.213H166.728C166.576 302.016 166.251 301.098 165.754 300.46C164.832 299.294 163.265 298.711 161.055 298.711C159.27 298.711 157.987 299.086 157.207 299.836C156.426 300.586 156.035 301.458 156.035 302.452C156.035 303.547 156.492 304.348 157.404 304.855C158.003 305.18 159.356 305.585 161.465 306.072L164.598 306.787C166.109 307.132 167.275 307.603 168.097 308.201C169.516 309.246 170.226 310.762 170.226 312.749C170.226 315.223 169.323 316.992 167.519 318.057C165.724 319.122 163.635 319.654 161.252 319.654C158.474 319.654 156.299 318.944 154.727 317.525C153.156 316.115 152.385 314.204 152.416 311.791H155.26Z" fill="#999999"/>
<path d="M175.905 296.657H185.959C187.946 296.657 189.548 297.22 190.765 298.346C191.982 299.461 192.59 301.033 192.59 303.06C192.59 304.804 192.047 306.325 190.963 307.623C189.878 308.911 188.21 309.555 185.959 309.555H178.932V319H175.905V296.657ZM189.533 303.076C189.533 301.433 188.924 300.318 187.708 299.73C187.038 299.415 186.121 299.258 184.955 299.258H178.932V307H184.955C186.313 307 187.414 306.711 188.255 306.133C189.107 305.555 189.533 304.536 189.533 303.076Z" fill="#999999"/>
<path d="M207.593 296.049C211.537 296.049 214.457 297.316 216.353 299.851C217.834 301.828 218.574 304.358 218.574 307.441C218.574 310.777 217.727 313.55 216.034 315.76C214.046 318.356 211.212 319.654 207.532 319.654C204.094 319.654 201.392 318.518 199.425 316.247C197.671 314.057 196.794 311.289 196.794 307.943C196.794 304.921 197.544 302.335 199.045 300.186C200.971 297.428 203.821 296.049 207.593 296.049ZM207.897 316.947C210.564 316.947 212.49 315.994 213.676 314.087C214.873 312.171 215.471 309.971 215.471 307.486C215.471 304.86 214.782 302.746 213.403 301.144C212.034 299.542 210.158 298.741 207.775 298.741C205.463 298.741 203.577 299.537 202.117 301.129C200.657 302.711 199.927 305.048 199.927 308.14C199.927 310.615 200.551 312.703 201.798 314.407C203.055 316.1 205.088 316.947 207.897 316.947Z" fill="#999999"/>
<path d="M223.751 296.657H227.325L238.611 314.757V296.657H241.485V319H238.094L226.641 300.916V319H223.751V296.657Z" fill="#999999"/>
<path d="M248.503 296.657H251.56V319H248.503V296.657ZM253.233 290.558L249.172 294.954H247.073L249.857 290.558H253.233Z" fill="#999999"/>
<path d="M259.81 296.657L266.228 315.684L272.571 296.657H275.962L267.81 319H264.601L256.464 296.657H259.81Z" fill="#999999"/>
<path d="M280.668 296.657H296.957V299.395H283.619V306.178H295.954V308.764H283.619V316.338H297.186V319H280.668V296.657Z" fill="#999999"/>
<path d="M302.713 296.657H305.739V316.338H317.055V319H302.713V296.657Z" fill="#999999"/>
</svg>
